<?xml version="1.0" encoding="UTF-8" standalone="no"?>
<!DOCTYPE svg PUBLIC "-//W3C//DTD SVG 1.1//EN" "http://www.w3.org/Graphics/SVG/1.1/DTD/svg11.dtd">
<svg width="10%" height="10%" viewBox="0 0 500 500" version="1.1" xmlns="http://www.w3.org/2000/svg" xmlns:xlink="http://www.w3.org/1999/xlink" xml:space="preserve" xmlns:serif="http://www.serif.com/" style="fill-rule:evenodd;clip-rule:evenodd;stroke-linejoin:round;stroke-miterlimit:2;">
    <g transform="matrix(2.77545,0,0,2.53697,-484.222,-316.23)">
        <rect x="174.466" y="124.611" width="180.151" height="197.086" style="fill:rgb(124,77,254);"/>
    </g>
    <g transform="matrix(2.18932,2.19221,-3.15396,3.14981,575.451,-1071.3)">
        <path d="M239.633,207.846C239.633,203.203 234.21,199.433 227.53,199.433C220.849,199.433 215.426,203.203 215.426,207.846L215.426,314.41C215.426,319.053 220.849,322.823 227.53,322.823C234.21,322.823 239.633,319.053 239.633,314.41L239.633,207.846Z" style="fill:white;"/>
    </g>
    <g transform="matrix(3.30476,0,2.20141e-15,1.86402,-668.202,-327.801)">
        <path d="M239.633,220.892C239.633,209.049 234.21,199.433 227.53,199.433C220.849,199.433 215.426,209.049 215.426,220.892L215.426,301.364C215.426,313.207 220.849,322.823 227.53,322.823C234.21,322.823 239.633,313.207 239.633,301.364L239.633,220.892Z" style="fill:white;"/>
    </g>
    <g transform="matrix(-5.25784,-5.25784,0.458456,-0.458456,1457.52,1696.73)">
        <path d="M239.633,261.128C239.633,227.078 237.223,199.433 234.254,199.433L220.805,199.433C217.836,199.433 215.426,227.078 215.426,261.128C215.426,295.178 217.836,322.823 220.805,322.823L234.254,322.823C237.223,322.823 239.633,295.178 239.633,261.128Z" style="fill:white;"/>
    </g>
</svg>
